<svg width="1180" height="836" viewBox="0 0 1180 836" fill="none" xmlns="http://www.w3.org/2000/svg">
        <path d="M503.463 654.199C500.292 649.026 496.955 643.854 493.868 638.597C481.269 617.489 474.009 594.545 469.671 570.516C465.415 547.655 464.998 524.544 465.332 501.433C465.499 490.587 466.667 479.741 466.166 468.894C465.415 449.955 461.577 431.766 450.146 415.831C442.47 404.984 431.957 397.309 421.444 389.716C395.578 371.194 380.059 345.83 372.215 315.377C366.291 292.6 362.37 269.489 363.037 245.877C363.538 228.857 366.208 212.17 370.88 195.818C371.298 194.232 372.883 192.981 374.468 191.98C374.885 199.655 377.389 205.663 385.232 210.085C379.808 212.421 375.386 214.34 370.463 216.426C371.965 217.844 373.217 219.012 374.719 220.347C379.141 216.342 383.73 214.507 389.654 215.508C394.326 216.342 397.581 212.921 399.833 208.75C401.085 206.497 403.087 204.495 405.257 201.741C402.17 200.824 398.832 199.822 394.493 198.487C393.075 195.067 391.156 190.311 388.903 184.554C387.151 188.392 385.732 191.562 384.314 194.816C381.06 192.23 378.056 189.727 375.052 187.307C380.476 178.046 384.815 167.867 391.49 159.608C406.342 141.336 425.949 129.405 447.727 120.978C473.342 111.133 499.792 104.792 527.076 102.372C548.603 100.37 570.213 98.9517 591.823 98.0339C612.599 97.1162 633.459 96.5321 654.235 97.0327C686.108 97.7836 716.897 104.208 745.766 118.475C759.95 125.567 774.135 132.909 788.319 140.752C780.393 150.43 776.304 160.859 777.139 173.207C767.46 175.126 760.368 180.299 755.445 188.475C752.274 185.639 749.604 183.219 747.184 180.633C745.098 168.368 737.923 158.857 730.08 150.096C719.567 138.416 706.55 129.905 692.116 123.731C656.655 108.547 622.529 110.632 589.904 131.574C585.566 134.327 582.228 138.833 577.973 142.504C571.548 144.673 565.541 146.759 559.533 148.845C553.359 131.24 541.01 122.146 524.99 124.149C505.215 126.485 498.957 140.919 496.538 158.773C494.785 157.605 493.617 156.938 492.449 156.103C477.681 145.09 456.738 152.599 452.566 170.454C450.981 177.045 452.065 178.463 458.74 178.463C488.11 178.547 517.481 178.547 546.851 178.964C544.181 189.894 540.593 200.323 539.007 211.086C537.172 223.434 537.005 236.032 541.344 248.464C533.918 256.307 525.657 263.065 521.819 273.327C519.566 279.418 517.731 285.758 515.561 292.517C504.297 278.917 490.447 273.744 474.26 279.918C456.654 286.593 450.647 301.444 449.813 319.716C436.546 309.871 422.946 307.117 409.345 316.879C401.836 322.302 396.329 329.728 396.996 340.324C398.916 340.407 400.334 340.574 401.752 340.574C462.245 340.574 522.82 340.574 583.313 340.491C585.065 340.491 586.734 339.74 588.736 339.489C595.161 342.66 601.168 345.663 607.677 348.834C603.421 356.927 600.334 366.105 602.086 376.534C603.838 386.963 608.428 395.723 616.938 402.064C631.707 413.161 649.479 411.576 668.086 397.726C675.011 409.49 677.848 411.993 689.112 416.331C697.122 426.01 707.718 430.098 719.4 430.682C739.341 431.766 755.445 424.675 764.873 406.737C769.379 409.24 773.384 412.076 777.889 413.828C791.073 419.085 803.922 415.247 810.597 404.567C828.453 415.664 842.053 428.596 843.388 451.54C845.808 495.259 846.142 538.811 840.384 582.196C830.038 570.933 818.357 564.091 802.42 566.761C796.496 550.408 786.4 539.896 767.96 539.646C767.877 534.222 767.794 529.467 767.96 524.377C768.711 523.293 769.462 522.625 769.629 521.791C770.797 516.034 772.466 510.277 772.8 504.52C773.05 499.681 769.629 496.677 764.957 495.426C764.706 495.426 764.623 494.842 764.373 494.592C758.949 488.334 754.944 487.667 747.184 490.42C743.346 491.838 739.091 492.673 734.919 493.09C729.746 493.507 726.325 497.095 728.578 501.767C730.08 504.937 733.834 507.023 736.504 510.194C737.088 515.033 737.589 519.455 738.34 523.793C739.508 530.551 742.512 535.891 749.437 538.311C750.272 538.644 750.772 540.146 750.939 541.064C748.686 541.648 746.684 542.065 744.848 542.733C736.254 545.569 730.998 551.326 729.412 560.671C726.242 562.423 723.321 563.841 720.651 565.593C717.898 567.262 715.812 567.012 713.559 564.592C710.639 561.255 707.468 557.917 704.047 555.164C702.629 553.996 700.126 554.246 697.956 554.079C697.873 554.83 698.04 555.414 698.206 556.082C698.206 556.082 698.206 556.082 698.206 556.499C700.042 561.755 701.878 566.594 703.713 571.934C704.464 577.441 703.964 583.198 710.138 586.118C711.306 588.037 712.391 589.622 713.559 591.458C713.893 592.208 714.31 592.626 714.644 593.293C714.56 593.543 714.727 594.127 714.393 594.378C691.949 591.458 675.178 600.885 661.41 617.655C652.9 608.478 643.638 602.304 630.956 602.554C618.023 602.888 609.679 610.063 603.338 619.574C599.667 610.647 596.496 601.636 592.324 593.043C590.906 590.289 587.068 588.704 584.314 586.535C582.729 589.622 580.059 592.459 579.725 595.629C578.974 602.304 579.475 609.145 579.475 616.07C575.72 611.231 572.633 606.392 568.628 602.387C559.199 592.792 549.103 594.962 546.1 607.977C544.014 617.489 544.431 627.667 544.681 637.513C544.848 642.101 544.014 643.77 539.341 644.438C527.076 646.273 514.56 647.775 503.463 654.199Z" fill="#CDE5ED"/>
        <path d="M688.945 415.998C677.848 411.993 675.011 409.49 668.086 397.726C649.479 411.576 631.707 413.161 616.938 402.064C608.428 395.723 603.838 386.963 602.086 376.534C600.334 366.105 603.421 356.927 607.677 348.834C601.168 345.663 595.161 342.66 588.569 339.156C576.721 327.892 574.218 314.626 579.224 300.443C584.231 286.092 594.994 277.999 610.43 276.331C611.765 276.164 613.1 275.58 614.769 275.079C616.354 275.079 617.522 275.162 619.191 275.496C624.614 276.414 629.621 277.165 634.794 277.916C635.712 265.317 641.552 255.639 651.565 248.798C660.326 242.79 670.422 240.788 681.436 242.457C692.282 244.042 700.543 249.632 707.969 257.475C715.812 245.46 726.158 240.287 739.758 245.043C747.768 247.88 750.772 254.972 749.854 266.485C758.365 266.152 763.371 270.407 764.706 278.917C766.959 277.916 768.378 277.248 769.963 276.664C791.49 268.822 816.521 281.253 823.196 303.029C826.2 312.707 826.2 312.958 836.129 311.206C850.564 308.536 863.747 303.697 871.256 289.513C871.757 288.595 873.008 287.761 874.093 287.344C886.609 282.505 893.951 273.243 897.539 260.729C902.879 242.29 891.949 225.103 873.008 223.184C865.916 222.433 858.49 224.352 851.899 225.019C849.312 221.348 847.143 216.092 843.221 213.339C839.3 210.585 833.626 210.251 828.286 208.833C820.943 181.968 798.081 171.205 777.472 173.04C776.304 160.859 780.393 150.43 788.57 141.085C802.837 128.904 818.19 126.151 834.794 135.329C843.305 140.001 848.227 147.677 851.899 156.437C867.418 137.915 892.7 144.923 896.788 170.954C911.39 163.362 924.156 164.363 934.168 179.715C935.253 186.89 936.004 193.315 936.671 200.156C932.75 207.665 928.912 214.84 925.324 221.765C926.742 222.016 929.245 222.433 931.665 222.85C958.365 228.106 969.629 262.814 953.025 278.083C952.107 278.917 951.857 281.086 952.107 282.421C954.944 297.105 948.77 309.036 934.919 315.628C924.907 320.383 914.477 321.051 903.797 319.132C902.128 334.65 898.958 339.239 886.192 343.995C883.522 344.078 881.269 344.245 878.599 344.162C873.871 342.104 869.56 340.185 865.666 338.405C861.494 340.741 857.072 343.327 852.149 345.914C844.973 346.915 838.966 344.913 833.042 341.241C830.122 337.57 827.451 334.233 824.531 330.645C822.111 341.575 817.022 351.003 807.927 357.344C801.92 361.516 794.827 364.019 787.819 367.356C786.317 367.523 785.232 367.773 783.647 367.94C773.3 368.524 763.455 368.357 754.026 363.685C754.36 365.854 754.527 367.439 754.36 369.025C752.024 368.774 750.105 368.274 747.935 367.606C730.914 361.766 714.227 356.093 697.456 350.503C697.289 351.059 697.122 351.615 696.955 352.171C713.642 358.846 730.413 365.521 747.435 372.445C751.023 374.364 754.444 375.95 757.781 378.119C757.614 380.705 757.364 382.875 757.197 385.044C756.029 403.816 737.255 414.663 721.986 408.238C720.818 407.738 718.732 408.155 717.814 408.989C709.304 416.248 699.708 418.167 688.945 415.998Z" fill="#DBA638"/>
        <path d="M1063.08 291.599C1072.01 309.37 1077.18 328.309 1081.27 347.582C1087.86 378.286 1087.78 409.406 1086.36 440.444C1085.02 470.146 1080.35 499.598 1073.26 528.466C1066.5 556.165 1058.32 583.364 1044.56 608.394C1036.96 622.077 1027.79 634.926 1018.77 648.526C1008.93 646.941 999.834 644.771 990.489 643.436C986.567 642.852 985.316 641.267 984.314 637.596C982.562 631.172 980.476 624.664 977.306 618.907C973.634 612.232 966.792 611.982 961.619 617.655C959.283 620.242 957.614 623.412 955.445 626.583C952.608 616.905 949.437 607.56 938.674 605.307C928.244 603.138 921.486 610.23 916.146 616.654C914.894 610.564 914.394 603.972 912.308 598.049C908.97 588.537 900.71 585.617 891.698 590.039C889.195 591.291 886.776 592.876 884.189 593.794C881.018 568.764 877.848 544.151 874.761 519.538C872.007 497.762 869.337 476.069 866.918 454.293C866.667 452.041 867.168 448.62 868.67 447.619C880.184 439.609 892.032 432.1 903.88 424.842C904.965 432.351 908.386 437.774 915.311 440.444C923.572 443.614 929.913 439.859 935.17 433.852C952.024 453.376 976.805 445.783 983.563 429.848C998.666 429.514 1007.93 421.754 1012.93 408.238C1025.95 420.92 1038.3 423.507 1050.48 416.164C1062.91 408.655 1066.33 395.807 1060.91 376.784C1084.27 361.85 1079.68 329.811 1054.65 319.549C1062.41 305.782 1062.41 305.782 1063.08 291.599Z" fill="#CDE5ED"/>
        <path d="M884.273 594.294C886.776 592.876 889.195 591.291 891.698 590.039C900.71 585.617 908.97 588.537 912.308 598.049C914.394 603.972 914.894 610.564 916.146 616.654C921.486 610.23 928.244 603.138 938.674 605.307C949.437 607.56 952.608 616.905 955.445 626.583C957.614 623.412 959.283 620.242 961.619 617.655C966.792 611.982 973.634 612.232 977.306 618.907C980.476 624.664 982.562 631.172 984.314 637.596C985.315 641.267 986.567 642.852 990.489 643.436C999.834 644.771 1008.93 646.941 1018.61 648.859C1021.78 650.111 1024.7 651.112 1027.28 652.697C1031.62 655.284 1031.71 658.705 1027.12 660.54C1020.53 663.21 1013.52 664.962 1006.59 666.964C1003.84 667.715 1001 668.216 997.331 668.967C995.161 669.134 993.91 669.217 992.658 669.301C968.711 671.72 944.848 674.724 920.818 676.476C896.788 678.228 872.675 679.396 848.645 679.73C805.507 680.397 762.37 680.731 719.233 680.23C684.272 679.813 649.312 678.311 614.352 676.643C595.578 675.725 576.805 673.806 558.115 671.637C543.763 670.051 529.579 667.382 515.228 665.129C511.974 663.877 508.636 662.709 505.465 661.124C502.879 659.873 500.876 658.037 503.296 654.533C514.56 647.775 527.076 646.273 539.341 644.438C544.014 643.77 544.848 642.101 544.681 637.513C544.431 627.667 544.014 617.489 546.1 607.977C549.103 594.962 559.199 592.792 568.628 602.387C572.633 606.392 575.72 611.231 579.475 616.07C579.475 609.145 578.974 602.304 579.725 595.629C580.059 592.459 582.729 589.622 584.314 586.535C587.067 588.704 590.906 590.289 592.324 593.043C596.496 601.636 599.667 610.647 603.338 619.574C609.679 610.063 618.023 602.888 630.956 602.554C643.638 602.304 652.9 608.478 661.41 617.655C675.178 600.885 691.949 591.457 714.644 594.378C715.228 594.127 715.645 594.127 715.645 594.127C715.562 594.127 715.645 594.044 715.645 594.461C718.732 605.391 724.99 610.147 733.834 608.561C733.834 611.398 733.834 614.235 733.334 617.155C723.572 615.737 714.143 614.318 704.214 612.9C694.452 611.231 687.193 617.071 689.696 628.085C690.363 631.005 692.366 634.175 694.786 636.011C701.21 640.85 708.052 645.022 714.56 649.777C711.473 652.531 708.302 654.616 705.966 657.453C704.798 658.871 704.047 662.626 704.965 663.544C706.3 664.962 709.554 665.63 711.556 665.129C717.397 663.544 722.987 661.291 729.245 659.205C735.92 659.789 742.095 660.123 748.269 660.874C753.859 661.541 759.366 662.626 765.207 663.46C770.297 665.796 774.886 668.383 779.725 670.302C783.897 671.887 786.817 669.134 785.983 664.712C784.982 659.205 781.728 655.284 776.888 652.948C781.894 651.446 786.734 650.445 791.156 648.526C799.917 644.855 809.095 641.684 814.101 632.173C815.27 632.256 816.021 632.256 816.771 632.673C816.104 635.427 815.353 637.846 814.936 639.265C823.28 640.516 831.456 641.35 839.466 643.019C844.139 643.937 845.557 648.359 844.056 655.117C843.054 659.539 839.967 659.289 836.379 658.705C828.202 657.37 819.942 656.285 811.598 655.117C811.598 659.455 815.436 659.873 818.357 660.29C826.951 661.625 835.545 663.127 844.139 663.293C851.064 663.377 858.907 663.21 860.493 653.615C860.576 653.031 861.244 652.197 861.828 652.113C867.752 650.862 867.084 646.19 866.25 642.268C865.165 637.346 862.996 632.673 861.494 627.918C860.743 625.331 860.493 622.661 859.909 620.075C868.086 629.253 871.924 639.515 869.504 651.529C877.097 651.529 884.106 651.529 891.365 651.529C889.028 632.173 886.692 613.234 884.273 594.294ZM622.862 646.356C624.364 647.107 625.783 647.775 627.952 648.609C628.536 649.026 629.12 649.36 629.788 650.695C629.788 652.864 629.788 655.034 629.12 657.62C630.205 658.204 631.289 659.372 632.458 659.372C644.139 659.483 655.82 659.483 667.501 659.372C673.509 659.372 676.429 654.95 673.759 649.61C672.591 647.191 670.088 645.439 668.503 642.602C669.003 640.516 669.42 638.43 670.088 635.343C668.252 636.344 667.585 636.762 666.667 636.178C666.667 635.51 666.584 634.843 666.917 633.508C668.336 632.173 669.754 630.838 671.84 629.002C663.079 629.002 655.32 629.503 647.643 628.836C638.882 628.085 631.79 630.254 625.365 637.095C619.942 638.597 622.111 642.352 622.862 646.356ZM596.913 645.606C587.568 629.753 566.625 629.92 556.362 646.106C551.606 653.532 553.859 658.621 562.787 659.289C569.462 659.789 576.137 659.455 583.396 660.039C591.657 664.128 600.251 663.127 608.761 661.291C611.932 660.624 612.85 658.037 611.598 654.867C608.845 648.359 603.088 647.191 596.913 645.606Z" fill="#459AA1"/>
        <path d="M515.311 665.546C529.579 667.382 543.763 670.052 558.115 671.637C576.805 673.806 595.578 675.725 614.352 676.643C649.312 678.311 684.272 679.813 719.233 680.23C762.37 680.731 805.507 680.397 848.645 679.73C872.675 679.396 896.788 678.228 920.818 676.476C944.848 674.724 968.711 671.72 992.658 669.301C993.91 669.217 995.161 669.134 996.913 669.134C993.91 672.888 990.822 677.143 986.817 680.23C964.957 696.75 940.843 709.182 914.227 715.773C892.533 721.113 870.589 725.284 848.561 728.788C834.544 731.041 820.192 731.625 806.008 732.293C785.065 733.377 764.122 734.629 743.179 734.295C720.901 733.878 698.54 731.709 676.262 730.29C652.232 728.705 628.619 724.617 605.507 718.109C572.966 708.848 542.762 694.915 518.815 669.968C517.564 668.717 516.479 667.298 515.311 665.546Z" fill="#CDE5EC"/>
        <path d="M1063 291.182C1062.41 305.782 1062.41 305.782 1054.65 319.549C1079.68 329.811 1084.27 361.85 1060.91 376.784C1066.33 395.807 1062.91 408.655 1050.48 416.164C1038.3 423.507 1025.95 420.92 1012.93 408.238C1007.93 421.754 998.666 429.514 983.146 429.764C970.964 428.095 963.121 422.005 959.617 410.992C948.353 415.747 943.93 414.83 937.673 406.57C949.187 400.229 960.535 394.222 971.882 388.214C971.66 387.714 971.465 387.185 971.298 386.629C959.7 390.884 948.102 395.139 936.504 398.894C936.504 396.975 936.504 395.473 936.504 394.972C929.496 394.472 923.321 394.138 916.813 393.471C914.894 392.72 913.309 392.219 911.39 391.385C903.463 386.879 898.29 380.539 895.703 371.778C894.452 368.441 896.204 367.69 898.624 367.106C910.806 364.019 919.733 357.094 924.656 345.33C925.157 344.162 926.909 342.994 928.161 342.91C940.676 341.659 949.938 335.818 954.944 325.473C963.038 326.224 970.547 327.809 977.973 327.392C988.736 326.641 998.832 323.053 1002.84 311.539C1004.09 307.868 1003 303.446 1003 299.442C1003.45 299.72 1003.89 300.026 1004.34 300.359C1007.68 295.937 1011.85 291.849 1014.27 286.927C1016.85 281.754 1013.93 276.414 1011.93 271.241C1024.28 260.395 1037.71 260.395 1053.07 270.824C1058.24 276.581 1061.83 283.005 1063 291.182Z" fill="#DBA739"/>
        <path d="M1052.98 270.49C1037.71 260.395 1024.28 260.395 1011.6 270.991C1008.18 268.738 1005.42 266.485 1002.59 264.149C1003.42 262.23 1004.26 260.395 1005.09 258.643C1016.52 231.444 1001.59 202.492 972.8 196.068C960.451 193.315 948.436 194.65 936.838 199.822C936.004 193.315 935.253 186.89 934.419 179.965C947.185 178.63 958.365 184.304 969.546 189.143C992.324 198.905 1011.93 213.589 1027.7 232.528C1037.3 244.125 1044.64 257.475 1052.98 270.49Z" fill="#CDE5EC"/>
        <path d="M374.969 187.725C378.056 189.727 381.06 192.23 384.314 194.816C385.732 191.562 387.151 188.392 388.903 184.554C391.156 190.311 393.075 195.067 394.493 198.487C398.832 199.822 402.17 200.824 405.257 201.741C403.087 204.495 401.085 206.497 399.833 208.75C397.581 212.921 394.326 216.342 389.654 215.508C383.73 214.507 379.141 216.342 374.719 220.347C373.217 219.012 371.965 217.844 370.463 216.426C375.386 214.34 379.808 212.421 385.232 210.085C377.389 205.663 374.885 199.655 374.802 191.896C374.802 190.394 374.885 189.226 374.969 187.725Z" fill="#303D55"/>
        <path d="M777.139 173.207C798.081 171.205 820.943 181.968 828.286 208.833C833.626 210.251 839.3 210.585 843.221 213.339C847.143 216.092 849.312 221.348 851.899 225.019C858.49 224.352 865.916 222.433 873.008 223.184C891.949 225.103 902.879 242.29 897.539 260.729C893.951 273.243 886.609 282.505 874.093 287.344C873.008 287.761 871.757 288.595 871.256 289.513C863.747 303.697 850.564 308.536 836.129 311.206C826.2 312.958 826.2 312.707 823.196 303.029C816.521 281.253 791.49 268.822 769.963 276.664C768.378 277.248 766.959 277.916 764.706 278.917C763.371 270.407 758.365 266.152 749.854 266.485C750.772 254.972 747.768 247.88 739.758 245.043C726.158 240.287 715.812 245.46 707.969 257.475C700.543 249.632 692.282 244.042 681.269 242.123C676.596 234.197 676.012 226.438 679.934 218.845C684.856 209.25 693.868 206.08 704.131 205.496C699.458 189.81 702.295 182.635 716.479 174.542C727.827 172.54 737.756 174.792 746.851 180.8C749.604 183.219 752.274 185.639 755.445 188.475C760.368 180.299 767.46 175.126 777.139 173.207Z" fill="#449A9F"/>
        <path d="M936.504 399.394C948.075 395.167 959.672 390.912 971.298 386.629C971.465 387.185 971.66 387.714 971.882 388.214C960.535 394.222 949.187 400.229 937.255 406.57C929.746 410.491 922.737 413.828 915.812 417.416C911.723 419.502 907.802 422.088 903.797 424.424C892.032 432.1 880.184 439.609 868.67 447.619C867.168 448.62 866.667 452.041 866.917 454.293C869.337 476.069 872.007 497.762 874.761 519.538C877.848 544.151 881.018 568.764 884.189 593.794C886.692 613.234 889.028 632.173 891.365 651.529C884.106 651.529 877.097 651.529 869.504 651.529C871.924 639.515 868.086 629.253 859.909 620.075C860.493 622.661 860.743 625.331 861.494 627.918C862.996 632.673 865.165 637.346 866.25 642.268C867.084 646.19 867.752 650.862 861.828 652.113C861.244 652.197 860.576 653.031 860.493 653.615C858.907 663.21 851.064 663.377 844.139 663.293C835.545 663.127 826.951 661.625 818.357 660.29C815.436 659.873 811.598 659.456 811.598 655.117C819.942 656.285 828.202 657.37 836.379 658.705C839.967 659.289 843.054 659.539 844.056 655.117C845.557 648.359 844.139 643.937 839.466 643.019C831.456 641.351 823.28 640.516 814.936 639.265C815.353 637.846 816.104 635.427 817.189 632.673C825.032 633.007 832.374 634.092 839.717 634.426C846.809 634.759 848.645 632.84 850.814 625.915C852.232 621.327 852.232 615.737 857.99 612.9C855.82 612.733 853.317 612.983 852.65 614.235C850.814 617.489 849.312 621.076 848.478 624.664C847.143 629.92 844.056 632.507 838.799 632.173C834.85 631.95 830.9 631.617 826.951 631.172C818.357 630.17 817.856 629.586 817.856 620.909C819.942 612.232 824.531 607.143 833.709 607.31C834.877 607.31 836.796 607.393 837.297 606.642C841.219 601.052 843.972 604.556 846.976 608.478C847.727 602.137 842.971 602.137 839.466 600.719C839.884 594.461 840.301 588.37 840.718 582.28C846.141 538.811 845.808 495.259 843.388 451.54C842.053 428.596 828.453 415.664 810.43 404.234C800.668 398.644 791.573 393.053 782.061 388.214C774.218 384.21 765.874 381.123 757.781 377.618C754.443 375.95 751.023 374.364 747.435 372.028C747.518 370.193 747.852 369.025 748.269 367.857C750.105 368.274 752.024 368.774 754.36 369.025C754.777 368.858 754.694 368.858 754.694 369.192C755.111 369.609 755.445 369.692 756.196 369.943C766.625 373.864 776.638 377.785 787.151 381.79C786.066 376.701 785.149 372.279 784.147 367.94C785.232 367.773 786.317 367.523 787.902 367.773C790.071 372.362 791.49 376.617 793.409 380.705C794.41 382.958 795.662 385.711 797.581 386.796C802.921 389.633 808.678 391.719 814.519 394.388C822.779 399.061 830.872 403.399 839.884 408.238C838.632 397.142 837.547 386.879 836.379 376.117C835.378 364.269 834.293 352.922 833.292 341.575C838.966 344.913 844.973 346.915 852.149 346.414C853.567 353.673 854.402 360.515 855.487 368.941C863.997 360.097 871.507 352.171 879.016 344.329C881.269 344.245 883.522 344.078 886.108 344.412C882.52 349.668 878.265 354.341 874.761 359.513C869.003 367.94 861.995 375.783 859.909 386.546C859.241 388.214 858.407 389.633 858.574 390.884C859.742 401.063 861.16 411.075 862.495 421.671C862.912 425.592 863.413 429.097 863.914 433.352C868.169 430.849 871.673 428.763 875.678 426.677C880.351 424.591 884.356 422.005 888.862 420.67C899.458 417.666 905.382 410.491 908.386 400.312C909.22 397.309 910.555 394.555 911.64 391.719C913.309 392.219 914.894 392.72 916.73 393.888C915.812 398.894 914.644 403.232 913.059 408.989C921.986 405.318 929.245 402.315 936.504 399.394Z" fill="#28364F"/>
        <path d="M614.518 275.162C613.1 275.58 611.765 276.164 610.43 276.331C594.994 277.999 584.231 286.092 579.224 300.443C574.218 314.626 576.721 327.892 588.236 339.072C586.734 339.74 585.065 340.491 583.313 340.491C522.82 340.574 462.245 340.574 401.752 340.574C400.334 340.574 398.916 340.407 396.996 340.324C396.329 329.728 401.836 322.302 409.345 316.879C422.946 307.117 436.546 309.871 449.812 319.716C450.647 301.444 456.654 286.593 474.26 279.918C490.447 273.744 504.297 278.917 515.561 292.517C517.731 285.758 519.566 279.418 521.819 273.327C525.657 263.065 533.918 256.307 541.761 248.464C549.687 245.627 557.03 243.041 564.79 240.538C571.715 241.205 578.223 241.289 584.481 242.457C596.079 244.626 604.923 251.885 613.183 259.644C609.012 260.311 605.09 260.729 600.751 261.146C602.67 263.398 604.589 266.235 606.926 268.655C609.262 270.991 611.932 272.993 614.518 275.162Z" fill="#FDFEFD"/>
        <path d="M546.851 178.547C517.481 178.547 488.11 178.519 458.74 178.463C452.065 178.463 450.981 177.045 452.566 170.454C456.738 152.599 477.681 145.09 492.449 156.103C493.617 156.938 494.785 157.605 496.538 158.773C498.957 140.919 505.215 126.485 524.99 124.148C541.01 122.146 553.359 131.24 559.533 148.845C565.541 146.759 571.548 144.673 578.473 142.504C588.069 142.921 594.243 147.677 598.916 154.768C591.239 162.861 583.813 170.704 575.803 178.463C565.791 178.463 556.362 178.547 546.851 178.547Z" fill="#FEFEFE"/>
        <path d="M733.834 617.155C733.834 614.263 733.834 611.398 733.834 608.561C724.99 610.146 718.732 605.391 715.979 594.378C718.983 595.879 721.653 597.882 724.406 600.301C726.993 603.806 729.829 604.056 733.417 601.887C743.096 598.716 752.358 595.629 761.369 592.542C761.119 590.289 760.952 588.537 761.202 586.785C762.454 584.199 764.957 580.611 764.039 579.443C761.202 575.605 757.197 572.602 753.526 568.847C751.94 565.259 750.856 561.839 749.187 558.752C748.436 557.5 746.434 557 744.598 555.915C742.262 555.748 740.092 555.331 738.257 555.998C735.253 557.166 732.583 558.919 729.663 560.42C730.998 551.326 736.254 545.569 744.848 542.733C746.684 542.065 748.686 541.648 751.023 541.481C752.107 545.569 754.277 547.655 758.115 547.655C763.288 547.655 766.598 545.152 768.044 540.146C786.4 539.896 796.496 550.408 802.504 567.178C804.923 578.108 807.927 588.204 809.012 598.549C810.18 608.561 807.26 610.647 797.33 610.564C796.663 610.564 795.996 610.814 794.911 611.148C794.911 612.983 794.911 614.819 794.577 616.738C793.075 617.322 791.907 617.739 790.238 618.073C788.403 618.323 786.901 618.49 785.566 618.824C768.127 623.329 750.856 623.746 733.834 617.155Z" fill="#29354F"/>
        <path d="M599.166 154.518C594.243 147.677 588.069 142.921 578.891 142.504C582.228 138.833 585.566 134.327 589.904 131.574C622.529 110.632 656.655 108.547 692.116 123.731C706.55 129.905 719.567 138.416 730.08 150.096C737.923 158.857 745.098 168.368 747.184 180.633C737.756 174.792 727.827 172.54 716.312 174.125C697.038 148.177 664.247 135.495 633.042 140.835C620.693 142.921 609.679 148.094 599.166 154.518Z" fill="#E2EDE9"/>
        <path d="M757.781 378.119C765.874 381.123 774.218 384.21 782.061 388.214C791.573 393.053 800.668 398.643 810.096 404.234C803.922 415.247 791.073 419.085 777.889 413.828C773.384 412.076 769.379 409.24 764.873 406.737C755.445 424.675 739.341 431.766 719.4 430.682C707.718 430.098 697.122 426.01 689.112 416.331C699.708 418.167 709.304 416.248 717.814 408.989C718.732 408.155 720.818 407.738 721.986 408.238C737.255 414.663 756.029 403.816 757.197 385.044C757.364 382.875 757.614 380.705 757.781 378.119Z" fill="#387C7E"/>
        <path d="M546.85 178.964C556.362 178.547 565.791 178.463 575.636 178.881C564.79 198.237 560.451 218.595 564.289 240.538C557.03 243.041 549.687 245.627 541.928 248.13C537.005 236.032 537.172 223.434 539.007 211.086C540.593 200.323 544.18 189.894 546.85 178.964Z" fill="#E2EDE9"/>
        <path d="M794.911 616.571C794.911 614.819 794.911 612.983 794.911 611.148C795.995 610.814 796.663 610.564 797.33 610.564C807.26 610.647 810.18 608.561 809.012 598.549C807.927 588.204 804.923 578.108 802.67 567.512C818.357 564.091 830.038 570.933 840.384 582.196C840.301 588.37 839.884 594.461 839.466 600.719C842.971 602.137 847.727 602.137 846.976 608.478C843.972 604.557 841.219 601.052 837.297 606.642C836.796 607.393 834.877 607.31 833.709 607.31C824.531 607.143 819.942 612.232 817.522 620.993C815.52 621.41 813.935 621.493 812.099 621.327C807.26 615.319 801.169 615.737 794.911 616.571Z" fill="#449A9F"/>
        <path d="M767.96 539.645C766.625 545.152 763.288 547.655 758.115 547.655C754.277 547.655 752.107 545.569 751.356 541.481C750.772 540.146 750.272 538.644 749.437 538.311C742.512 535.891 739.508 530.551 738.34 523.793C737.589 519.455 737.088 515.033 737.005 510.194C741.928 509.109 746.433 508.942 750.605 507.774C757.364 505.938 758.782 506.439 760.618 513.03C761.118 514.782 761.869 516.451 762.537 518.12C764.206 515.95 765.374 514.282 766.792 512.863C766.959 512.697 769.212 513.865 769.129 514.282C768.878 516.368 768.127 518.37 767.71 520.456C767.543 521.791 767.71 523.209 767.71 524.628C767.793 529.467 767.877 534.222 767.96 539.645Z" fill="#F4BBAB"/>
        <path d="M767.96 524.377C767.71 523.209 767.543 521.791 767.71 520.456C768.127 518.37 768.878 516.368 769.128 514.282C769.212 513.865 766.959 512.697 766.792 512.863C765.374 514.282 764.206 515.95 762.537 518.12C761.869 516.451 761.118 514.782 760.618 513.03C758.782 506.439 757.364 505.938 750.605 507.774C746.433 508.942 741.928 509.109 737.088 509.693C733.834 507.023 730.08 504.937 728.578 501.767C726.325 497.095 729.746 493.507 734.919 493.09C739.091 492.673 743.346 491.838 747.184 490.42C754.944 487.667 758.949 488.334 764.373 494.592C764.623 494.842 764.706 495.426 764.957 495.426C769.629 496.677 773.05 499.681 772.8 504.52C772.466 510.277 770.797 516.034 769.629 521.791C769.462 522.625 768.711 523.293 767.96 524.377Z" fill="#29354F"/>
        <path d="M724.239 599.884C721.652 597.882 718.982 595.879 715.979 593.961C715.645 594.044 715.562 594.127 715.728 593.794C715.812 593.376 715.645 593.21 715.395 592.792C714.727 592.042 714.06 591.624 713.476 591.124C712.391 589.622 711.306 588.037 710.472 585.951C713.058 581.279 709.471 574.103 703.797 571.434C701.878 566.594 700.042 561.755 698.624 556.499C703.797 560.17 708.636 564.175 713.476 568.597C714.894 573.853 716.229 578.692 717.898 583.448C719.817 588.955 722.07 594.461 724.239 599.884Z" fill="#E9DFD2"/>
        <path d="M713.559 568.18C708.636 564.175 703.797 560.17 698.624 556.082C698.207 556.082 698.207 556.082 698.207 555.748C698.207 554.83 698.207 554.413 698.207 553.913C700.126 554.246 702.629 553.996 704.047 555.164C707.468 557.917 710.639 561.255 713.559 564.592C715.812 567.012 717.898 567.262 720.651 565.593C723.321 563.841 726.242 562.423 729.412 560.671C732.583 558.919 735.253 557.166 738.257 555.998C740.092 555.331 742.262 555.748 744.598 556.332C743.179 557.834 741.594 558.919 739.925 559.669C733.25 562.59 726.575 565.343 719.483 568.18C717.147 568.18 715.311 568.18 713.559 568.18Z" fill="#FDFEFD"/>
        <path d="M703.713 571.934C709.471 574.103 713.058 581.279 710.388 585.617C703.964 583.198 704.464 577.441 703.713 571.934Z" fill="#F4BBAB"/>
        <path d="M713.559 591.458C714.06 591.624 714.727 592.042 715.144 592.792C715.061 593.126 714.644 593.043 714.644 593.043C714.31 592.626 713.893 592.208 713.559 591.458Z" fill="#459AA1"/>
        <path d="M697.956 554.079C698.206 554.413 698.206 554.83 698.206 555.748C698.04 555.414 697.873 554.83 697.956 554.079Z" fill="#E9DFD2"/>
        <path d="M714.644 593.293C714.644 593.043 715.061 593.126 715.311 593.126C715.645 593.21 715.812 593.376 715.812 593.877C715.645 594.127 715.228 594.127 714.978 594.127C714.727 594.127 714.56 593.543 714.644 593.293Z" fill="#29354F"/>
        <path d="M564.79 240.538C560.451 218.595 564.79 198.237 576.137 178.881C583.813 170.704 591.239 162.861 598.916 154.768C609.679 148.094 620.693 142.921 633.042 140.835C664.247 135.495 697.038 148.177 715.812 174.208C702.295 182.635 699.458 189.81 704.131 205.496C693.868 206.08 684.856 209.25 679.934 218.845C676.012 226.438 676.596 234.197 680.851 242.04C670.422 240.788 660.326 242.79 651.565 248.798C641.552 255.639 635.712 265.317 634.794 277.916C629.621 277.165 624.614 276.414 619.191 275.079C619.191 273.577 619.358 272.159 620.109 271.825C625.115 269.823 626.7 265.651 627.535 260.729C627.868 258.976 629.037 257.224 629.788 255.472C625.365 251.634 621.193 250.383 617.689 257.141C617.022 258.309 614.936 258.643 613.517 259.394C604.923 251.885 596.079 244.626 584.481 242.457C578.223 241.289 571.715 241.205 564.79 240.538Z" fill="#F8D581"/>
        <path d="M860.242 386.295C861.995 375.783 869.003 367.94 874.761 359.513C878.265 354.341 882.52 349.668 886.609 344.412C898.957 339.239 902.128 334.65 903.797 319.132C914.477 321.051 924.907 320.383 934.919 315.628C948.77 309.036 954.944 297.105 952.107 282.421C951.857 281.086 952.107 278.917 953.025 278.083C969.629 262.814 958.365 228.106 931.665 222.85C929.245 222.433 926.742 222.016 925.324 221.765C928.912 214.84 932.75 207.665 936.671 200.156C948.436 194.65 960.451 193.315 972.8 196.068C1001.59 202.492 1016.52 231.444 1005.09 258.643C1004.26 260.395 1003.42 262.23 1002.59 264.149C1005.42 266.485 1008.18 268.738 1011.26 271.241C1013.93 276.414 1016.85 281.754 1014.27 286.927C1011.85 291.849 1007.68 295.937 1004.34 300.359C1003.89 300.026 1003.45 299.72 1003 299.442C1003 303.446 1004.09 307.868 1002.84 311.539C998.832 323.053 988.736 326.641 977.973 327.392C970.547 327.809 963.038 326.224 954.944 325.473C949.938 335.818 940.676 341.659 928.161 342.91C926.909 342.994 925.157 344.162 924.656 345.33C919.733 357.094 910.806 364.019 898.624 367.106C896.204 367.69 894.452 368.441 895.37 371.862C891.448 380.872 886.025 387.881 876.429 388.882C871.173 389.382 865.666 387.297 860.242 386.295Z" fill="#45999E"/>
        <path d="M814.268 394.055C808.678 391.719 802.921 389.633 797.581 386.796C795.662 385.711 794.41 382.958 793.409 380.705C791.49 376.617 790.071 372.362 788.319 367.773C794.827 364.019 801.919 361.516 807.927 357.344C817.022 351.003 822.111 341.575 824.531 330.646C827.451 334.233 830.121 337.57 833.042 341.242C834.293 352.922 835.378 364.269 836.129 376.283C831.373 385.378 824.114 389.216 814.769 389.382C814.602 391.218 814.435 392.636 814.268 394.055Z" fill="#387C7E"/>
        <path d="M878.599 344.162C871.507 352.171 863.997 360.097 855.487 368.941C854.402 360.515 853.567 353.673 852.65 346.414C857.072 343.327 861.494 340.741 865.666 338.405C869.56 340.185 873.871 342.104 878.599 344.162Z" fill="#45999E"/>
        <path d="M613.183 259.644C614.936 258.643 617.022 258.309 617.689 257.141C621.193 250.383 625.365 251.634 629.788 255.472C629.037 257.224 627.868 258.976 627.535 260.729C626.7 265.651 625.115 269.823 620.109 271.825C619.358 272.159 619.191 273.577 618.774 274.912C617.522 275.162 616.354 275.079 614.769 275.079C611.932 272.993 609.262 270.991 606.926 268.655C604.589 266.235 602.67 263.398 600.751 261.146C605.09 260.729 609.012 260.311 613.183 259.644Z" fill="#303D55"/>
        <path d="M783.647 367.94C785.149 372.279 786.066 376.701 787.151 381.79C776.638 377.785 766.625 373.864 756.112 369.692C755.445 368.941 755.111 368.774 754.694 368.858C754.694 368.858 754.777 368.858 754.777 368.941C754.527 367.44 754.36 365.854 754.026 363.685C763.455 368.357 773.3 368.524 783.647 367.94Z" fill="#387C7E"/>
        <path d="M747.935 367.606C747.852 369.025 747.518 370.193 747.184 371.778C730.413 365.521 713.642 358.846 696.955 352.171C697.122 351.615 697.289 351.059 697.455 350.503C714.226 356.093 730.914 361.766 747.935 367.606Z" fill="#303D55"/>
        <path d="M903.88 424.842C907.802 422.088 911.723 419.502 915.812 417.416C922.737 413.828 929.746 410.491 937.089 406.987C943.93 414.83 948.353 415.747 959.617 410.992C963.121 422.005 970.964 428.095 982.645 429.848C976.805 445.783 952.024 453.376 935.169 433.852C929.913 439.859 923.572 443.614 915.311 440.444C908.386 437.774 904.965 432.351 903.88 424.842Z" fill="#387C7E"/>
        <path d="M764.873 663.46C759.366 662.626 753.859 661.541 748.269 660.874C742.095 660.123 735.92 659.789 729.162 658.871C727.577 656.786 726.826 654.366 725.324 653.532C722.07 651.78 718.315 650.778 714.811 649.444C708.052 645.022 701.21 640.85 694.786 636.011C692.366 634.175 690.363 631.005 689.696 628.085C687.193 617.071 694.452 611.231 704.548 613.15C710.055 615.82 715.144 617.822 719.733 620.659C732.249 628.168 744.598 635.927 756.863 643.853C760.868 646.523 764.373 650.111 767.877 653.699C766.792 657.119 765.791 660.29 764.873 663.46Z" fill="#E8DCCC"/>
        <path d="M794.577 616.738C801.169 615.736 807.26 615.319 812.182 621.744C812.933 625.665 813.35 628.919 813.684 632.173C809.095 641.684 799.917 644.855 791.156 648.526C786.734 650.445 781.894 651.446 776.554 652.948C775.303 652.948 774.886 652.864 774.385 652.364C768.378 646.69 762.453 641.434 755.945 635.677C757.781 634.592 759.617 633.341 761.619 632.34C771.298 627.584 780.977 622.912 790.655 618.156C791.907 617.739 793.075 617.322 794.577 616.738Z" fill="#E8DCCC"/>
        <path d="M790.238 618.073C780.977 622.912 771.298 627.584 761.619 632.34C759.617 633.341 757.781 634.592 755.945 635.677C762.454 641.434 768.378 646.69 773.884 652.447C771.715 653.031 769.879 653.198 768.044 653.365C764.373 650.111 760.868 646.523 756.863 643.854C744.598 635.927 732.249 628.168 719.733 620.659C715.144 617.822 710.055 615.82 704.965 613.15C714.143 614.318 723.572 615.737 733.334 617.155C750.856 623.746 768.127 623.329 785.566 618.824C786.901 618.49 788.403 618.323 790.238 618.073Z" fill="#CFBEAC"/>
        <path d="M582.812 659.456C576.137 659.456 569.462 659.789 562.787 659.289C553.859 658.621 551.607 653.532 556.362 646.106C566.625 629.92 587.568 629.753 596.579 646.023C588.82 647.775 583.563 651.279 582.812 659.456Z" fill="#E9DFD2"/>
        <path d="M583.062 659.706C583.563 651.279 588.82 647.775 596.579 646.44C603.088 647.191 608.845 648.359 611.598 654.867C612.85 658.037 611.932 660.624 608.761 661.291C600.251 663.126 591.657 664.128 583.062 659.706Z" fill="#CFBEAC"/>
        <path d="M629.788 657.119C629.788 655.034 629.788 652.864 630.288 650.111C642.971 649.527 655.236 649.36 667.501 649.61C669.003 649.694 670.505 652.03 672.007 653.281C670.756 654.616 669.42 657.119 668.169 657.119C655.32 657.37 642.554 657.203 629.788 657.119Z" fill="#FDFEFD"/>
        <path d="M626.116 637.012C631.79 630.254 638.882 628.085 647.643 628.836C655.32 629.503 663.079 629.002 671.84 629.002C669.754 630.838 668.336 632.173 666.333 634.008C662.912 635.51 660.159 637.346 657.322 637.429C646.976 637.763 636.629 637.513 626.2 637.346C626.2 637.262 626.116 637.012 626.116 637.012Z" fill="#303D55"/>
        <path d="M767.877 653.699C769.879 653.198 771.715 653.031 773.968 652.864C774.886 652.864 775.303 652.948 776.137 653.115C781.728 655.284 784.982 659.205 785.983 664.712C786.817 669.134 783.897 671.887 779.725 670.302C774.886 668.383 770.297 665.796 765.207 663.46C765.791 660.29 766.792 657.119 767.877 653.699Z" fill="#28364F"/>
        <path d="M714.56 649.777C718.315 650.778 722.07 651.78 725.324 653.532C726.826 654.366 727.577 656.786 728.661 658.871C722.987 661.291 717.397 663.544 711.556 665.129C709.554 665.63 706.3 664.962 704.965 663.544C704.047 662.626 704.798 658.871 705.966 657.453C708.302 654.616 711.473 652.531 714.56 649.777Z" fill="#28364F"/>
        <path d="M629.454 657.37C642.554 657.203 655.319 657.37 668.169 657.119C669.42 657.119 670.755 654.616 672.007 653.281C670.505 652.03 669.003 649.694 667.501 649.61C655.236 649.36 642.971 649.527 630.205 649.61C629.12 649.36 628.536 649.026 627.952 648.192C638.966 647.608 650.146 647.274 661.327 647.358C664.664 647.358 666.834 646.356 668.169 643.353C670.088 645.439 672.591 647.191 673.759 649.61C676.429 654.95 673.509 659.372 667.501 659.372C655.82 659.483 644.139 659.483 632.458 659.372C631.289 659.372 630.205 658.204 629.454 657.37Z" fill="#303D55"/>
        <path d="M814.101 632.173C813.351 628.919 812.933 625.665 812.516 621.911C813.935 621.493 815.52 621.41 817.439 621.327C817.856 629.586 818.357 630.17 826.951 631.172C830.9 631.617 834.85 631.95 838.799 632.173C844.056 632.507 847.143 629.92 848.478 624.664C849.312 621.076 850.814 617.489 852.65 614.235C853.317 612.983 855.82 612.733 857.99 612.9C852.233 615.737 852.232 621.327 850.814 625.915C848.645 632.84 846.809 634.759 839.717 634.426C832.374 634.092 825.032 633.007 817.272 632.256C816.021 632.256 815.27 632.256 814.101 632.173Z" fill="#387C7E"/>
        <path d="M626.283 637.513C636.629 637.513 646.976 637.763 657.322 637.429C660.159 637.346 662.912 635.51 666.083 634.259C666.584 634.843 666.667 635.51 666.584 636.929C665.666 638.597 664.831 639.515 663.58 640.6C650.897 640.766 638.632 640.766 626.283 640.433C626.283 639.181 626.283 638.347 626.283 637.513Z" fill="#45999E"/>
        <path d="M663.997 640.516C664.831 639.515 665.666 638.597 666.667 637.429C667.585 636.762 668.252 636.345 670.088 635.343C669.42 638.43 669.003 640.516 668.336 642.936C666.834 646.356 664.665 647.358 661.327 647.358C650.146 647.274 638.966 647.608 627.535 648.109C625.783 647.775 624.364 647.107 622.946 645.856C623.029 645.355 623.363 645.022 623.864 645.188C636.629 645.272 648.895 645.355 661.244 645.355C664.998 645.355 666.584 644.104 663.997 640.516Z" fill="#DBA739"/>
        <path d="M626.2 637.346C626.283 638.347 626.283 639.181 625.866 640.433C624.781 642.268 624.114 643.603 623.363 645.022C623.363 645.022 623.029 645.355 622.862 645.522C622.111 642.352 619.942 638.597 625.783 637.095C626.116 637.012 626.2 637.262 626.2 637.346Z" fill="#DBA739"/>
        <path d="M859.909 386.546C865.666 387.297 871.173 389.382 876.429 388.882C886.025 387.881 891.448 380.872 895.453 372.279C898.29 380.539 903.463 386.879 911.39 391.385C910.555 394.555 909.22 397.309 908.386 400.312C905.382 410.491 899.458 417.666 888.862 420.67C884.356 422.005 880.351 424.591 875.261 426.677C870.505 424.842 866.5 423.006 862.495 421.17C861.16 411.075 859.742 401.063 858.574 390.884C858.407 389.633 859.241 388.214 859.909 386.546Z" fill="#387C7E"/>
        <path d="M936.505 398.894C929.245 402.315 921.986 405.318 913.059 408.989C914.644 403.232 915.812 398.894 917.064 394.138C923.321 394.138 929.496 394.472 936.505 394.972C936.505 395.473 936.505 396.975 936.505 398.894Z" fill="#387C7E"/>
        <path d="M814.519 394.388C814.435 392.636 814.602 391.218 814.769 389.382C824.114 389.216 831.373 385.378 836.129 376.784C837.547 386.879 838.632 397.142 839.884 408.238C830.872 403.399 822.779 399.061 814.519 394.388Z" fill="#CDE5EC"/>
        <path d="M862.495 421.671C866.5 423.006 870.505 424.842 874.844 426.677C871.673 428.763 868.169 430.849 863.914 433.352C863.413 429.097 862.912 425.592 862.495 421.671Z" fill="#CDE5EC"/>
        <path d="M754.694 369.192C755.111 368.774 755.445 368.941 755.695 369.609C755.445 369.692 755.111 369.609 754.694 369.192Z" fill="#DBA638"/>
        <path d="M719.9 568.18C726.575 565.343 733.25 562.59 739.925 559.669C741.594 558.919 743.179 557.834 744.932 556.499C746.433 557 748.436 557.5 749.187 558.752C750.856 561.839 751.94 565.259 753.526 569.264C753.859 571.35 754.026 572.685 754.277 574.103C753.887 573.714 753.498 573.325 753.108 572.935C750.438 574.854 746.684 576.106 745.432 578.609C744.014 581.446 749.854 585.951 754.861 586.535C756.863 586.702 758.866 586.702 760.868 586.869C760.952 588.537 761.118 590.289 761.369 592.542C752.358 595.629 743.096 598.716 733.417 601.47C731.081 596.797 729.078 592.626 727.41 588.287C724.823 581.612 722.403 574.938 719.9 568.18Z" fill="#E9DFD2"/>
        <path d="M719.483 568.18C722.403 574.938 724.823 581.612 727.41 588.287C729.078 592.626 731.081 596.797 733 601.469C729.829 604.056 726.993 603.806 724.406 600.301C722.07 594.461 719.817 588.954 717.898 583.448C716.229 578.692 714.894 573.853 713.476 568.597C715.311 568.18 717.147 568.18 719.483 568.18Z" fill="#CFBEAC"/>
        <path d="M761.202 586.785C758.866 586.702 756.863 586.702 754.861 586.535C749.854 585.951 744.014 581.446 745.432 578.609C746.684 576.106 750.438 574.854 753.108 572.935C753.498 573.325 753.887 573.714 754.277 574.103C754.026 572.685 753.859 571.35 753.692 569.598C757.197 572.602 761.202 575.605 764.039 579.443C764.957 580.611 762.453 584.199 761.202 586.785Z" fill="#F4BBAB"/>
        <path d="M623.864 645.188C624.114 643.603 624.781 642.268 625.949 640.85C638.632 640.766 650.897 640.766 663.58 640.6C666.584 644.104 664.998 645.355 661.244 645.355C648.895 645.355 636.629 645.272 623.864 645.188Z" fill="#E2EDE9"/>
        </svg>