<svg width="146" height="100" viewBox="0 0 146 100" fill="none" xmlns="http://www.w3.org/2000/svg">
<path d="M118.226 5.85142C117.359 8.44571 114.713 16.16 114.678 16.2057C114.644 16.2628 108.268 18.0228 104.721 18.9828C103.306 19.3486 102.143 19.68 102.109 19.7028C102.086 19.7257 104.322 21.4857 107.059 23.6114C109.808 25.7486 112.112 27.5314 112.192 27.6C112.295 27.6914 112.295 28.6743 112.18 32C112.089 34.3543 111.987 37.36 111.941 38.6629L111.861 41.0514L117.154 37.2571C120.062 35.1657 122.492 33.44 122.56 33.4171C122.617 33.3943 125.4 34.3886 128.72 35.6343C132.05 36.8914 134.776 37.8971 134.799 37.8857C134.81 37.8743 134.662 37.3257 134.468 36.6743C134.274 36.0229 133.453 33.2229 132.655 30.4686L131.195 25.4514L132.301 24.0686C134.388 21.4628 139.27 15.2228 139.27 15.1543C139.27 15.12 138.575 15.0857 137.708 15.0857C135.848 15.0857 128.685 14.88 127.225 14.7886L126.187 14.72L122.572 9.30285C120.575 6.31999 118.933 3.8857 118.91 3.8857C118.899 3.8857 118.591 4.77713 118.226 5.85142Z" fill="#C87820" fill-opacity="0.4"/>
<path d="M38.8155 15.1658C35.8841 23.8743 31.7094 35.9315 31.5611 36.0686C31.4356 36.1943 17.1436 40.16 10.836 41.8286C6.21643 43.0401 4.67658 43.4743 4.68799 43.5429C4.68799 43.5772 5.03018 43.8629 5.45221 44.1715C6.78674 45.1772 26.28 60.2515 26.4511 60.4115C26.588 60.5372 26.5766 61.6001 26.3599 67.7943C26.0861 75.7601 25.6983 86.4686 25.6299 88.0229C25.5956 88.5829 25.5956 89.0286 25.6185 89.0286C25.6755 89.0286 36.443 81.3258 43.0472 76.5486L48.5108 72.5943L49.2066 72.8572C49.5944 73.0058 52.3889 74.0458 55.4344 75.1772C58.4799 76.3201 64.0347 78.4001 67.7874 79.8058C71.5286 81.2115 74.5969 82.3086 74.5969 82.2629C74.5969 82.2058 73.981 80.1029 73.2396 77.5658C72.4867 75.0401 71.0496 70.1143 70.0458 66.6286C69.0421 63.1429 67.9128 59.2801 67.5478 58.0458L66.8863 55.8172L70.3538 51.4172C72.27 49.0058 76.0911 44.1486 78.8514 40.6286C81.6117 37.1086 83.95 34.1372 84.0413 34.0229C84.1325 33.9201 84.1781 33.7943 84.1325 33.7486C84.0869 33.7029 81.6231 33.6229 78.6689 33.5772C73.9581 33.5086 66.8521 33.3258 58.765 33.0743L56.3355 32.9943L51.465 25.7258C48.7846 21.7258 45.2942 16.4915 43.686 14.0915C42.0891 11.6915 40.7431 9.71433 40.7089 9.71433C40.6747 9.71433 39.8192 12.1715 38.8155 15.1658Z" fill="#C87820" fill-opacity="0.4"/>
<path d="M113.777 66.5371C113.025 68.7314 112.386 70.5829 112.352 70.6286C112.295 70.7314 109.135 71.6343 105.793 72.5143C104.915 72.7429 104.162 72.9714 104.105 73.0171C104.059 73.0629 105.542 74.2743 107.401 75.7143L110.778 78.3314L110.698 80.7314C110.652 82.0571 110.584 84.0457 110.527 85.1429C110.481 86.24 110.447 87.1543 110.458 87.1657C110.47 87.1771 112.078 86.0457 114.04 84.64L117.598 82.0914L119.23 82.6971C120.119 83.0286 121.944 83.7143 123.279 84.2057C125.48 85.0286 125.708 85.0971 125.651 84.88C125.617 84.7429 125.07 82.88 124.454 80.7429L123.313 76.8571L123.632 76.4571C124.853 74.9257 128.663 70.0457 128.663 70.0229C128.663 70 127.111 69.9429 125.218 69.8971C123.313 69.8514 121.363 69.7943 120.872 69.7486L119.982 69.68L117.644 66.1829C116.344 64.2629 115.26 62.6514 115.215 62.6057C115.18 62.56 114.53 64.3314 113.777 66.5371Z" fill="#C87820" fill-opacity="0.4"/>
</svg>
